<?xml version="1.0" encoding="UTF-8" standalone="no"?>
<!-- Created with Inkscape (http://www.inkscape.org/) -->

<svg
   xmlns:dc="http://purl.org/dc/elements/1.1/"
   xmlns:cc="http://creativecommons.org/ns#"
   xmlns:rdf="http://www.w3.org/1999/02/22-rdf-syntax-ns#"
   xmlns:svg="http://www.w3.org/2000/svg"
   xmlns="http://www.w3.org/2000/svg"
   xmlns:sodipodi="http://sodipodi.sourceforge.net/DTD/sodipodi-0.dtd"
   xmlns:inkscape="http://www.inkscape.org/namespaces/inkscape"
   id="svg2"
   version="1.1"
   inkscape:version="0.48.3.1 r9886"
   width="990"
   height="765"
   xml:space="preserve"
   sodipodi:docname="phase-diagram.svg"><metadata
     id="metadata8"><rdf:RDF><cc:Work
         rdf:about=""><dc:format>image/svg+xml</dc:format><dc:type
           rdf:resource="http://purl.org/dc/dcmitype/StillImage" /><dc:title></dc:title></cc:Work></rdf:RDF></metadata><defs
     id="defs6" /><sodipodi:namedview
     pagecolor="#ffffff"
     bordercolor="#666666"
     borderopacity="1"
     objecttolerance="10"
     gridtolerance="10"
     guidetolerance="10"
     inkscape:pageopacity="0"
     inkscape:pageshadow="2"
     inkscape:window-width="1855"
     inkscape:window-height="1056"
     id="namedview4"
     showgrid="false"
     inkscape:zoom="1.1195057"
     inkscape:cx="486.05445"
     inkscape:cy="400.14744"
     inkscape:window-x="65"
     inkscape:window-y="24"
     inkscape:window-maximized="1"
     inkscape:current-layer="g10" /><g
     id="g10"
     inkscape:groupmode="layer"
     inkscape:label="ink_ext_XXXXXX"
     transform="matrix(0,1.25,1.25,0,0,0)"><rect
       style="fill:#55f1ff;fill-opacity:1;stroke:#ffffff;stroke-width:0.81189436000000004;stroke-opacity:1"
       id="rect4026"
       width="514.89996"
       height="222.22638"
       x="209.69919"
       y="183.10622"
       transform="matrix(0,1,1,0,0,0)" /><path
       style="fill:#ffa000;stroke:#000000;stroke-width:1px;stroke-linecap:butt;stroke-linejoin:miter;stroke-opacity:1;fill-opacity:1"
       d="m 906.38057,466.87343 -86.5325,2.5265 -86.5325,0.63162 -86.5325,1.89487 -86.5325,6.31624 -85.90088,10.73761 -86.5325,6.94787 -87.79575,10.10598 -84.63763,35.37095 0,49.89831 690.99676,0.63162 z"
       id="path4024"
       inkscape:connector-curvature="0"
       transform="matrix(0,0.8,0.8,0,0,0)"
       sodipodi:nodetypes="cccccccccccc" /><path
       style="fill:#ffff00;fill-opacity:1;stroke:#000000;stroke-width:0.80000000999999998px;stroke-linecap:butt;stroke-linejoin:miter;stroke-opacity:1"
       d="m 321.45292,172.81235 111.16584,0.5053 -235.46946,551.78681 -76.3002,0.5053 z"
       id="path4003"
       inkscape:connector-curvature="0" /><path
       style="fill:#b3b3b3;fill-opacity:1;stroke:#000000;stroke-width:0.80000000999999998px;stroke-linecap:butt;stroke-linejoin:miter;stroke-opacity:1"
       d="m 80.335571,173.06466 245.575449,0 -202.11971,552.79741 -42.950439,-0.5053 z"
       id="path3997"
       inkscape:connector-curvature="0" /><path
       inkscape:connector-curvature="0"
       id="path14"
       style="fill:none;stroke:#000000;stroke-width:1;stroke-linecap:butt;stroke-linejoin:miter;stroke-miterlimit:3.79999995;stroke-opacity:1;stroke-dasharray:none"
       d="m 474,172.5 0,6.3 m 0,546.1 0,-6.3" /><g
       id="g16"><text
         id="text18"
         transform="matrix(0,1,1,0,482.33,126.25)"><tspan
           id="tspan20"
           sodipodi:role="line"
           y="0"
           x="0 12.5 18.75"
           style="font-size:25px;font-variant:normal;font-weight:normal;writing-mode:lr-tb;fill:#000000;fill-opacity:1;fill-rule:nonzero;stroke:none;font-family:Times New Roman;-inkscape-font-specification:Times-Roman">0.5</tspan></text>
</g><path
       inkscape:connector-curvature="0"
       id="path22"
       style="fill:none;stroke:#000000;stroke-width:1;stroke-linecap:butt;stroke-linejoin:miter;stroke-miterlimit:3.79999995;stroke-opacity:1;stroke-dasharray:none"
       d="m 424.8,172.5 0,3.1 m 0,549.3 0,-3.1 m -49.3,-549.3 0,6.3 m 0,546.1 0,-6.3" /><g
       id="g24"><text
         id="text26"
         transform="matrix(0,1,1,0,383.83,145)"><tspan
           id="tspan28"
           y="0"
           x="0"
           style="font-size:25px;font-variant:normal;font-weight:normal;writing-mode:lr-tb;fill:#000000;fill-opacity:1;fill-rule:nonzero;stroke:none;font-family:Times New Roman;-inkscape-font-specification:Times-Roman">1</tspan></text>
</g><path
       inkscape:connector-curvature="0"
       id="path30"
       style="fill:none;stroke:#000000;stroke-width:1;stroke-linecap:butt;stroke-linejoin:miter;stroke-miterlimit:3.79999995;stroke-opacity:1;stroke-dasharray:none"
       d="m 326.3,172.5 0,3.1 m 0,549.3 0,-3.1 M 277,172.5 l 0,6.3 m 0,546.1 0,-6.3" /><g
       id="g32"><text
         id="text34"
         transform="matrix(0,1,1,0,285.33,126.25)"><tspan
           id="tspan36"
           sodipodi:role="line"
           y="0"
           x="0 12.5 18.75"
           style="font-size:25px;font-variant:normal;font-weight:normal;writing-mode:lr-tb;fill:#000000;fill-opacity:1;fill-rule:nonzero;stroke:none;font-family:Times New Roman;-inkscape-font-specification:Times-Roman">1.5</tspan></text>
</g><path
       inkscape:connector-curvature="0"
       id="path38"
       style="fill:none;stroke:#000000;stroke-width:1;stroke-linecap:butt;stroke-linejoin:miter;stroke-miterlimit:3.79999995;stroke-opacity:1;stroke-dasharray:none"
       d="m 227.8,172.5 0,3.1 m 0,549.3 0,-3.1 m -49.2,-549.3 0,6.3 m 0,546.1 0,-6.3" /><g
       id="g40"><text
         id="text42"
         transform="matrix(0,1,1,0,186.93,145)"><tspan
           id="tspan44"
           y="0"
           x="0"
           style="font-size:25px;font-variant:normal;font-weight:normal;writing-mode:lr-tb;fill:#000000;fill-opacity:1;fill-rule:nonzero;stroke:none;font-family:Times New Roman;-inkscape-font-specification:Times-Roman">2</tspan></text>
</g><path
       inkscape:connector-curvature="0"
       id="path46"
       style="fill:none;stroke:#000000;stroke-width:1;stroke-linecap:butt;stroke-linejoin:miter;stroke-miterlimit:3.79999995;stroke-opacity:1;stroke-dasharray:none"
       d="m 129.3,172.5 0,3.1 m 0,549.3 0,-3.1 m -49.2,-549.3 0,6.3 m 0,546.1 0,-6.3" /><g
       id="g48"><text
         id="text50"
         transform="matrix(0,1,1,0,88.4301,126.25)"><tspan
           id="tspan52"
           sodipodi:role="line"
           y="0"
           x="0 12.5 18.75"
           style="font-size:25px;font-variant:normal;font-weight:normal;writing-mode:lr-tb;fill:#000000;fill-opacity:1;fill-rule:nonzero;stroke:none;font-family:Times New Roman;-inkscape-font-specification:Times-Roman">2.5</tspan></text>
</g><path
       inkscape:connector-curvature="0"
       id="path54"
       style="fill:none;stroke:#000000;stroke-width:1;stroke-linecap:butt;stroke-linejoin:miter;stroke-miterlimit:3.79999995;stroke-opacity:1;stroke-dasharray:none"
       d="m 474,172.5 -6.3,0 m -387.6,0 6.3,0" /><g
       id="g56"><text
         id="text58"
         transform="matrix(0,1,1,0,507.33,169.375)"><tspan
           id="tspan60"
           y="0"
           x="0"
           style="font-size:25px;font-variant:normal;font-weight:normal;writing-mode:lr-tb;fill:#000000;fill-opacity:1;fill-rule:nonzero;stroke:none;font-family:Times New Roman;-inkscape-font-specification:Times-Roman">1</tspan></text>
</g><path
       inkscape:connector-curvature="0"
       id="path62"
       style="fill:none;stroke:#000000;stroke-width:1;stroke-linecap:butt;stroke-linejoin:miter;stroke-miterlimit:3.79999995;stroke-opacity:1;stroke-dasharray:none"
       d="m 474,241.6 -3.1,0 m -390.8,0 3.1,0 m 390.8,69 -6.3,0 m -387.6,0 6.3,0" /><g
       id="g64"><text
         id="text66"
         transform="matrix(0,1,1,0,507.33,298.1)"><tspan
           id="tspan68"
           sodipodi:role="line"
           y="0"
           x="0 12.5 18.75"
           style="font-size:25px;font-variant:normal;font-weight:normal;writing-mode:lr-tb;fill:#000000;fill-opacity:1;fill-rule:nonzero;stroke:none;font-family:Times New Roman;-inkscape-font-specification:Times-Roman">1.5</tspan></text>
</g><path
       inkscape:connector-curvature="0"
       id="path70"
       style="fill:none;stroke:#000000;stroke-width:1;stroke-linecap:butt;stroke-linejoin:miter;stroke-miterlimit:3.79999995;stroke-opacity:1;stroke-dasharray:none"
       d="m 474,379.7 -3.1,0 m -390.8,0 3.1,0 m 390.8,69 -6.3,0 m -387.6,0 6.3,0" /><g
       id="g72"><text
         id="text74"
         transform="matrix(0,1,1,0,507.33,445.575)"><tspan
           id="tspan76"
           y="0"
           x="0"
           style="font-size:25px;font-variant:normal;font-weight:normal;writing-mode:lr-tb;fill:#000000;fill-opacity:1;fill-rule:nonzero;stroke:none;font-family:Times New Roman;-inkscape-font-specification:Times-Roman">2</tspan></text>
</g><path
       inkscape:connector-curvature="0"
       id="path78"
       style="fill:none;stroke:#000000;stroke-width:1;stroke-linecap:butt;stroke-linejoin:miter;stroke-miterlimit:3.79999995;stroke-opacity:1;stroke-dasharray:none"
       d="m 474,517.8 -3.1,0 m -390.8,0 3.1,0 m 390.8,69 -6.3,0 m -387.6,0 6.3,0" /><g
       id="g80"><text
         id="text82"
         transform="matrix(0,1,1,0,507.33,574.3)"><tspan
           id="tspan84"
           sodipodi:role="line"
           y="0"
           x="0 12.5 18.75"
           style="font-size:25px;font-variant:normal;font-weight:normal;writing-mode:lr-tb;fill:#000000;fill-opacity:1;fill-rule:nonzero;stroke:none;font-family:Times New Roman;-inkscape-font-specification:Times-Roman">2.5</tspan></text>
</g><path
       inkscape:connector-curvature="0"
       id="path86"
       style="fill:none;stroke:#000000;stroke-width:1;stroke-linecap:butt;stroke-linejoin:miter;stroke-miterlimit:3.79999995;stroke-opacity:1;stroke-dasharray:none"
       d="m 474,655.9 -3.1,0 m -390.8,0 3.1,0 m 390.8,69 -6.3,0 m -387.6,0 6.3,0" /><g
       id="g88"><text
         id="text90"
         transform="matrix(0,1,1,0,507.33,721.775)"><tspan
           id="tspan92"
           y="0"
           x="0"
           style="font-size:25px;font-variant:normal;font-weight:normal;writing-mode:lr-tb;fill:#000000;fill-opacity:1;fill-rule:nonzero;stroke:none;font-family:Times New Roman;-inkscape-font-specification:Times-Roman">3</tspan></text>
</g><path
       inkscape:connector-curvature="0"
       id="path94"
       style="fill:none;stroke:#000000;stroke-width:1;stroke-linecap:butt;stroke-linejoin:miter;stroke-miterlimit:3.79999995;stroke-opacity:1;stroke-dasharray:none"
       d="m 80.1,172.5 393.9,0 0,552.4 -393.9,0 0,-552.4 z" /><path
       inkscape:connector-curvature="0"
       id="path106"
       style="fill:#000000;fill-opacity:1;fill-rule:nonzero;stroke:none"
       d="m 397.6,314.695 c -2.261,0 -4.095,-1.834 -4.095,-4.095 0,-2.261 1.834,-4.095 4.095,-4.095 2.261,0 4.095,1.834 4.095,4.095 0,2.261 -1.834,4.095 -4.095,4.095" /><path
       inkscape:connector-curvature="0"
       id="path108"
       style="fill:#000000;fill-opacity:1;fill-rule:nonzero;stroke:none"
       d="m 391.3,383.795 c -2.261,0 -4.095,-1.834 -4.095,-4.095 0,-2.261 1.834,-4.095 4.095,-4.095 2.261,0 4.095,1.834 4.095,4.095 0,2.261 -1.834,4.095 -4.095,4.095" /><path
       inkscape:connector-curvature="0"
       id="path110"
       style="fill:#000000;fill-opacity:1;fill-rule:nonzero;stroke:none"
       d="m 382.4,452.795 c -2.261,0 -4.095,-1.834 -4.095,-4.095 0,-2.261 1.834,-4.095 4.095,-4.095 2.261,0 4.095,1.834 4.095,4.095 0,2.261 -1.834,4.095 -4.095,4.095" /><path
       inkscape:connector-curvature="0"
       id="path112"
       style="fill:#000000;fill-opacity:1;fill-rule:nonzero;stroke:none"
       d="m 377.5,521.895 c -2.261,0 -4.095,-1.834 -4.095,-4.095 0,-2.261 1.834,-4.095 4.095,-4.095 2.261,0 4.095,1.834 4.095,4.095 0,2.261 -1.834,4.095 -4.095,4.095" /><path
       inkscape:connector-curvature="0"
       id="path114"
       style="fill:#000000;fill-opacity:1;fill-rule:nonzero;stroke:none"
       d="m 375.5,590.895 c -2.261,0 -4.095,-1.834 -4.095,-4.095 0,-2.261 1.834,-4.095 4.095,-4.095 2.261,0 4.095,1.834 4.095,4.095 0,2.261 -1.834,4.095 -4.095,4.095" /><path
       inkscape:connector-curvature="0"
       id="path116"
       style="fill:#000000;fill-opacity:1;fill-rule:nonzero;stroke:none"
       d="m 375.5,659.995 c -2.261,0 -4.095,-1.834 -4.095,-4.095 0,-2.261 1.834,-4.095 4.095,-4.095 2.261,0 4.095,1.834 4.095,4.095 0,2.261 -1.834,4.095 -4.095,4.095" /><path
       inkscape:connector-curvature="0"
       id="path118"
       style="fill:#000000;fill-opacity:1;fill-rule:nonzero;stroke:none"
       d="m 373.6,728.995 c -2.261,0 -4.095,-1.834 -4.095,-4.095 0,-2.261 1.834,-4.095 4.095,-4.095 2.261,0 4.095,1.834 4.095,4.095 0,2.261 -1.834,4.095 -4.095,4.095" /><path
       inkscape:connector-curvature="0"
       id="path120"
       style="fill:#ffffff;stroke:#0000ff;stroke-width:0.50000000000000000;stroke-linecap:butt;stroke-linejoin:miter;stroke-miterlimit:3.79999995000000013;stroke-opacity:1;stroke-dasharray:none;fill-opacity:1"
       d="m 430.7,176.595 c -2.261,0 -4.095,-1.834 -4.095,-4.095 0,-2.261 1.834,-4.095 4.095,-4.095 2.261,0 4.095,1.834 4.095,4.095 0,2.261 -1.834,4.095 -4.095,4.095" /><path
       inkscape:connector-curvature="0"
       id="path122"
       style="fill:#ffffff;fill-opacity:1;stroke:#0000ff;stroke-width:0.5;stroke-linecap:butt;stroke-linejoin:miter;stroke-miterlimit:3.79999995;stroke-opacity:1;stroke-dasharray:none"
       d="m 411,245.695 c -2.261,0 -4.095,-1.834 -4.095,-4.095 0,-2.261 1.834,-4.095 4.095,-4.095 2.261,0 4.095,1.834 4.095,4.095 0,2.261 -1.834,4.095 -4.095,4.095" /><path
       inkscape:connector-curvature="0"
       id="path124"
       style="fill:#ffffff;stroke:#0000ff;stroke-width:0.50000000000000000;stroke-linecap:butt;stroke-linejoin:miter;stroke-miterlimit:3.79999995000000013;stroke-opacity:1;stroke-dasharray:none;fill-opacity:1"
       d="m 371.6,314.695 c -2.261,0 -4.095,-1.834 -4.095,-4.095 0,-2.261 1.834,-4.095 4.095,-4.095 2.261,0 4.095,1.834 4.095,4.095 0,2.261 -1.834,4.095 -4.095,4.095" /><path
       inkscape:connector-curvature="0"
       id="path132"
       style="fill:#ffffff;stroke:#0000ff;stroke-width:0.50000000000000000;stroke-linecap:butt;stroke-linejoin:miter;stroke-miterlimit:3.79999995000000013;stroke-opacity:1;stroke-dasharray:none;fill-opacity:1"
       d="m 257.4,590.895 c -2.261,0 -4.095,-1.834 -4.095,-4.095 0,-2.261 1.834,-4.095 4.095,-4.095 2.261,0 4.095,1.834 4.095,4.095 0,2.261 -1.834,4.095 -4.095,4.095" /><path
       inkscape:connector-curvature="0"
       id="path134"
       style="fill:#ffffff;stroke:#0000ff;stroke-width:0.50000000000000000;stroke-linecap:butt;stroke-linejoin:miter;stroke-miterlimit:3.79999995000000013;stroke-opacity:1;stroke-dasharray:none;fill-opacity:1"
       d="m 227.8,659.995 c -2.261,0 -4.095,-1.834 -4.095,-4.095 0,-2.261 1.834,-4.095 4.095,-4.095 2.261,0 4.095,1.834 4.095,4.095 0,2.261 -1.834,4.095 -4.095,4.095" /><path
       inkscape:connector-curvature="0"
       id="path172"
       style="fill:none;stroke:#000000;stroke-width:1;stroke-linecap:butt;stroke-linejoin:miter;stroke-miterlimit:3.79999995;stroke-opacity:1;stroke-dasharray:none"
       d="m 80.1,172.5 393.9,0 0,552.4 -393.9,0 0,-552.4 z" /><path
       inkscape:connector-curvature="0"
       id="path152"
       style="fill:#ff0000;fill-opacity:1;fill-rule:nonzero;stroke:none"
       d="M 144.905,655.9 149,651.805 153.095,655.9 149,659.995 144.905,655.9" /><path
       inkscape:connector-curvature="0"
       id="path154"
       style="fill:#ff0000;fill-opacity:1;fill-rule:nonzero;stroke:none"
       d="m 119.305,724.9 4.095,-4.095 4.095,4.095 -4.095,4.095 -4.095,-4.095" /><path
       inkscape:connector-curvature="0"
       id="path150"
       style="fill:#ff0000;fill-opacity:1;fill-rule:nonzero;stroke:none"
       d="m 170.505,586.8 4.095,-4.095 4.095,4.095 -4.095,4.095 -4.095,-4.095" /><path
       inkscape:connector-curvature="0"
       id="path148"
       style="fill:#ff0000;fill-opacity:1;fill-rule:nonzero;stroke:none"
       d="m 194.205,517.8 4.095,-4.095 4.095,4.095 -4.095,4.095 -4.095,-4.095" /><path
       inkscape:connector-curvature="0"
       id="path146"
       style="fill:#ff0000;fill-opacity:1;fill-rule:nonzero;stroke:none"
       d="m 221.705,448.7 4.095,-4.095 4.095,4.095 -4.095,4.095 -4.095,-4.095" /><path
       inkscape:connector-curvature="0"
       id="path144"
       style="fill:#ff0000;fill-opacity:1;fill-rule:nonzero;stroke:none"
       d="m 245.405,379.7 4.095,-4.095 4.095,4.095 -4.095,4.095 -4.095,-4.095" /><path
       inkscape:connector-curvature="0"
       id="path142"
       style="fill:#ff0000;fill-opacity:1;fill-rule:nonzero;stroke:none"
       d="M 272.905,310.6 277,306.505 281.095,310.6 277,314.695 272.905,310.6" /><path
       inkscape:connector-curvature="0"
       id="path140"
       style="fill:#ff0000;fill-opacity:1;fill-rule:nonzero;stroke:none"
       d="m 296.605,241.6 4.095,-4.095 4.095,4.095 -4.095,4.095 -4.095,-4.095" /><path
       inkscape:connector-curvature="0"
       id="path138"
       style="fill:#ff0000;fill-opacity:1;fill-rule:nonzero;stroke:none"
       d="m 320.205,172.5 4.095,-4.095 4.095,4.095 -4.095,4.095 -4.095,-4.095" /><path
       inkscape:connector-curvature="0"
       id="path126"
       style="fill:#ffffff;stroke:#0000ff;stroke-width:0.50000000000000000;stroke-linecap:butt;stroke-linejoin:miter;stroke-miterlimit:3.79999995000000013;stroke-opacity:1;stroke-dasharray:none;fill-opacity:1"
       d="m 344,383.795 c -2.261,0 -4.095,-1.834 -4.095,-4.095 0,-2.261 1.834,-4.095 4.095,-4.095 2.261,0 4.095,1.834 4.095,4.095 0,2.261 -1.834,4.095 -4.095,4.095" /><path
       inkscape:connector-curvature="0"
       id="path128"
       style="fill:#ffffff;stroke:#0000ff;stroke-width:0.50000000000000000;stroke-linecap:butt;stroke-linejoin:miter;stroke-miterlimit:3.79999995000000013;stroke-opacity:1;stroke-dasharray:none;fill-opacity:1"
       d="m 312.5,452.795 c -2.261,0 -4.095,-1.834 -4.095,-4.095 0,-2.261 1.834,-4.095 4.095,-4.095 2.261,0 4.095,1.834 4.095,4.095 0,2.261 -1.834,4.095 -4.095,4.095" /><path
       inkscape:connector-curvature="0"
       id="path130"
       style="fill:#ffffff;stroke:#0000ff;stroke-width:0.50000000000000000;stroke-linecap:butt;stroke-linejoin:miter;stroke-miterlimit:3.79999995000000013;stroke-opacity:1;stroke-dasharray:none;fill-opacity:1"
       d="m 284.9,521.895 c -2.261,0 -4.095,-1.834 -4.095,-4.095 0,-2.261 1.834,-4.095 4.095,-4.095 2.261,0 4.095,1.834 4.095,4.095 0,2.261 -1.834,4.095 -4.095,4.095" /><path
       inkscape:connector-curvature="0"
       id="path136"
       style="fill:#ffffff;stroke:#0000ff;stroke-width:0.50000000000000000;stroke-linecap:butt;stroke-linejoin:miter;stroke-miterlimit:3.79999995000000013;stroke-opacity:1;stroke-dasharray:none;fill-opacity:1"
       d="m 198.3,728.995 c -2.261,0 -4.095,-1.834 -4.095,-4.095 0,-2.261 1.834,-4.095 4.095,-4.095 2.261,0 4.095,1.834 4.095,4.095 0,2.261 -1.834,4.095 -4.095,4.095" /><flowRoot
       xml:space="preserve"
       id="flowRoot3849"
       style="font-size:40px;font-style:normal;font-weight:normal;fill:#000000;fill-opacity:1;stroke:none;font-family:Bitstream Vera Sans"
       transform="matrix(0,0.8,0.8,0,53.73095,125.29468)"><flowRegion
         id="flowRegion3851"><rect
           id="rect3853"
           width="108.87497"
           height="80.796684"
           x="443.52225"
           y="441.81326" /></flowRegion><flowPara
         id="flowPara3855"
         style="font-size:36px;font-style:normal;font-variant:normal;font-weight:normal;font-stretch:normal;font-family:Times New Roman;-inkscape-font-specification:'Times New Roman,'">(I)</flowPara></flowRoot><flowRoot
       xml:space="preserve"
       id="flowRoot3849-6"
       style="font-size:40px;font-style:normal;font-weight:normal;fill:#000000;fill-opacity:1;stroke:none;font-family:Bitstream Vera Sans"
       transform="matrix(0,0.8,0.8,0,-55.805227,231.5995)"><flowRegion
         id="flowRegion3851-2"><rect
           id="rect3853-0"
           width="108.87497"
           height="80.796684"
           x="443.52225"
           y="441.81326" /></flowRegion><flowPara
         id="flowPara3855-9"
         style="font-size:36px;font-style:normal;font-variant:normal;font-weight:normal;font-stretch:normal;font-family:Times New Roman;-inkscape-font-specification:'Times New Roman,'">(II)</flowPara></flowRoot><flowRoot
       xml:space="preserve"
       id="flowRoot3849-66"
       style="font-size:40px;font-style:normal;font-weight:normal;fill:#000000;fill-opacity:1;stroke:none;font-family:Bitstream Vera Sans"
       transform="matrix(0,0.8,0.8,0,-125.60252,112.77351)"><flowRegion
         id="flowRegion3851-6"><rect
           id="rect3853-7"
           width="108.87497"
           height="80.796684"
           x="443.52225"
           y="441.81326" /></flowRegion><flowPara
         id="flowPara3855-96"
         style="font-size:36px;font-style:normal;font-variant:normal;font-weight:normal;font-stretch:normal;font-family:Times New Roman;-inkscape-font-specification:'Times New Roman,'">(III)</flowPara></flowRoot><flowRoot
       xml:space="preserve"
       id="flowRoot3849-0"
       style="font-size:40px;font-style:normal;font-weight:normal;fill:#000000;fill-opacity:1;stroke:none;font-family:Bitstream Vera Sans"
       transform="matrix(0,0.8,0.8,0,-213.32765,-62.15061)"><flowRegion
         id="flowRegion3851-3"><rect
           id="rect3853-3"
           width="108.87497"
           height="80.796684"
           x="443.52225"
           y="441.81326" /></flowRegion><flowPara
         id="flowPara3855-5"
         style="font-size:36px;font-style:normal;font-variant:normal;font-weight:normal;font-stretch:normal;font-family:Times New Roman;-inkscape-font-specification:'Times New Roman,'">(IV)</flowPara></flowRoot><flowRoot
       xml:space="preserve"
       id="flowRoot3489-2-1-85-4"
       style="font-size:40px;font-style:normal;font-weight:normal;line-height:125%;letter-spacing:0px;word-spacing:0px;fill:#000000;fill-opacity:1;stroke:none;font-family:Sans"
       transform="matrix(0,0.8,0.8,0,7.7617972,39.774643)"><flowRegion
         id="flowRegion3491-7-2-7-5"><rect
           id="rect3493-3-8-1-3"
           width="152.07167"
           height="80.115768"
           x="41.329449"
           y="100.48729" /></flowRegion><flowPara
         id="flowPara3495-5-5-1-9"
         style="font-size:40px;font-style:italic;font-variant:normal;font-weight:normal;font-stretch:normal;text-align:start;line-height:125%;writing-mode:lr-tb;text-anchor:start;font-family:Times New Roman;-inkscape-font-specification:'Times New Roman, Italic'"><flowSpan
           style="font-size:48px"
           id="flowSpan5288-6-9">J</flowSpan><flowSpan
           id="flowSpan5296-7-6"
           style="font-size:28px;baseline-shift:sub">αβ</flowSpan></flowPara></flowRoot><flowRoot
       xml:space="preserve"
       id="flowRoot3489-2-1-85-4-8"
       style="font-size:40px;font-style:normal;font-weight:normal;line-height:125%;letter-spacing:0px;word-spacing:0px;fill:#000000;fill-opacity:1;stroke:none;font-family:Sans"
       transform="matrix(0,0.8,0.8,0,423.45742,640.14753)"><flowRegion
         id="flowRegion3491-7-2-7-5-2"><rect
           id="rect3493-3-8-1-3-8"
           width="152.07167"
           height="80.115768"
           x="41.329449"
           y="100.48729" /></flowRegion><flowPara
         id="flowPara3495-5-5-1-9-7"
         style="font-size:40px;font-style:italic;font-variant:normal;font-weight:normal;font-stretch:normal;text-align:start;line-height:125%;writing-mode:lr-tb;text-anchor:start;font-family:Times New Roman;-inkscape-font-specification:'Times New Roman, Italic'"><flowSpan
           style="font-size:48px"
           id="flowSpan5288-6-9-6">J</flowSpan><flowSpan
           id="flowSpan5296-7-6-0"
           style="font-size:28px;baseline-shift:sub">ββ</flowSpan></flowPara></flowRoot></g></svg>