<?xml version="1.0" encoding="UTF-8" standalone="no"?>
<!-- Created with Inkscape (http://www.inkscape.org/) -->

<svg
   xmlns:dc="http://purl.org/dc/elements/1.1/"
   xmlns:cc="http://creativecommons.org/ns#"
   xmlns:rdf="http://www.w3.org/1999/02/22-rdf-syntax-ns#"
   xmlns:svg="http://www.w3.org/2000/svg"
   xmlns="http://www.w3.org/2000/svg"
   xmlns:sodipodi="http://sodipodi.sourceforge.net/DTD/sodipodi-0.dtd"
   xmlns:inkscape="http://www.inkscape.org/namespaces/inkscape"
   id="svg2"
   version="1.1"
   inkscape:version="0.48.3.1 r9886"
   width="990"
   height="765"
   xml:space="preserve"
   sodipodi:docname="Jab2.png"><metadata
     id="metadata8"><rdf:RDF><cc:Work
         rdf:about=""><dc:format>image/svg+xml</dc:format><dc:type
           rdf:resource="http://purl.org/dc/dcmitype/StillImage" /><dc:title></dc:title></cc:Work></rdf:RDF></metadata><defs
     id="defs6" /><sodipodi:namedview
     pagecolor="#ffffff"
     bordercolor="#666666"
     borderopacity="1"
     objecttolerance="10"
     gridtolerance="10"
     guidetolerance="10"
     inkscape:pageopacity="0"
     inkscape:pageshadow="2"
     inkscape:window-width="1855"
     inkscape:window-height="1056"
     id="namedview4"
     showgrid="false"
     inkscape:zoom="1.2339869"
     inkscape:cx="593.60731"
     inkscape:cy="430.67576"
     inkscape:window-x="65"
     inkscape:window-y="24"
     inkscape:window-maximized="1"
     inkscape:current-layer="g10" /><g
     id="g10"
     inkscape:groupmode="layer"
     inkscape:label="ink_ext_XXXXXX"
     transform="matrix(0,1.25,1.25,0,0,0)"><path
       inkscape:connector-curvature="0"
       id="path14"
       style="fill:none;stroke:#000000;stroke-width:1;stroke-linecap:butt;stroke-linejoin:miter;stroke-miterlimit:3.79999995;stroke-opacity:1;stroke-dasharray:none"
       d="m 470.8,193 0,6.3 m 0,523.8 0,-6.3" /><g
       id="g16"><text
         id="text18"
         transform="matrix(0,1,1,0,479.47,131.9)"><tspan
           id="tspan20"
           sodipodi:role="line"
           y="0"
           x="0 13 19.5 32.5"
           style="font-size:26px;font-variant:normal;font-weight:normal;writing-mode:lr-tb;fill:#000000;fill-opacity:1;fill-rule:nonzero;stroke:none;font-family:Times New Roman;-inkscape-font-specification:Times-Roman">1.75</tspan></text>
</g><path
       inkscape:connector-curvature="0"
       id="path22"
       style="fill:none;stroke:#000000;stroke-width:1;stroke-linecap:butt;stroke-linejoin:miter;stroke-miterlimit:3.79999995;stroke-opacity:1;stroke-dasharray:none"
       d="m 405.9,193 0,6.3 m 0,523.8 0,-6.3" /><g
       id="g24"><text
         id="text26"
         transform="matrix(0,1,1,0,414.57,144.9)"><tspan
           id="tspan28"
           sodipodi:role="line"
           y="0"
           x="0 13 19.5"
           style="font-size:26px;font-variant:normal;font-weight:normal;writing-mode:lr-tb;fill:#000000;fill-opacity:1;fill-rule:nonzero;stroke:none;font-family:Times New Roman;-inkscape-font-specification:Times-Roman">1.8</tspan></text>
</g><path
       inkscape:connector-curvature="0"
       id="path30"
       style="fill:none;stroke:#000000;stroke-width:1;stroke-linecap:butt;stroke-linejoin:miter;stroke-miterlimit:3.79999995;stroke-opacity:1;stroke-dasharray:none"
       d="m 341,193 0,6.3 m 0,523.8 0,-6.3" /><g
       id="g32"><text
         id="text34"
         transform="matrix(0,1,1,0,349.67,131.9)"><tspan
           id="tspan36"
           sodipodi:role="line"
           y="0"
           x="0 13 19.5 32.5"
           style="font-size:26px;font-variant:normal;font-weight:normal;writing-mode:lr-tb;fill:#000000;fill-opacity:1;fill-rule:nonzero;stroke:none;font-family:Times New Roman;-inkscape-font-specification:Times-Roman">1.85</tspan></text>
</g><path
       inkscape:connector-curvature="0"
       id="path38"
       style="fill:none;stroke:#000000;stroke-width:1;stroke-linecap:butt;stroke-linejoin:miter;stroke-miterlimit:3.79999995;stroke-opacity:1;stroke-dasharray:none"
       d="m 276,193 0,6.3 m 0,523.8 0,-6.3" /><g
       id="g40"><text
         id="text42"
         transform="matrix(0,1,1,0,284.67,144.9)"><tspan
           id="tspan44"
           sodipodi:role="line"
           y="0"
           x="0 13 19.5"
           style="font-size:26px;font-variant:normal;font-weight:normal;writing-mode:lr-tb;fill:#000000;fill-opacity:1;fill-rule:nonzero;stroke:none;font-family:Times New Roman;-inkscape-font-specification:Times-Roman">1.9</tspan></text>
</g><path
       inkscape:connector-curvature="0"
       id="path46"
       style="fill:none;stroke:#000000;stroke-width:1;stroke-linecap:butt;stroke-linejoin:miter;stroke-miterlimit:3.79999995;stroke-opacity:1;stroke-dasharray:none"
       d="m 211.1,193 0,6.3 m 0,523.8 0,-6.3" /><g
       id="g48"><text
         id="text50"
         transform="matrix(0,1,1,0,219.77,131.9)"><tspan
           id="tspan52"
           sodipodi:role="line"
           y="0"
           x="0 13 19.5 32.5"
           style="font-size:26px;font-variant:normal;font-weight:normal;writing-mode:lr-tb;fill:#000000;fill-opacity:1;fill-rule:nonzero;stroke:none;font-family:Times New Roman;-inkscape-font-specification:Times-Roman">1.95</tspan></text>
</g><path
       inkscape:connector-curvature="0"
       id="path54"
       style="fill:none;stroke:#000000;stroke-width:1;stroke-linecap:butt;stroke-linejoin:miter;stroke-miterlimit:3.79999995;stroke-opacity:1;stroke-dasharray:none"
       d="m 146.2,193 0,6.3 m 0,523.8 0,-6.3" /><g
       id="g56"><text
         id="text58"
         transform="matrix(0,1,1,0,154.87,164.4)"><tspan
           id="tspan60"
           y="0"
           x="0"
           style="font-size:26px;font-variant:normal;font-weight:normal;writing-mode:lr-tb;fill:#000000;fill-opacity:1;fill-rule:nonzero;stroke:none;font-family:Times New Roman;-inkscape-font-specification:Times-Roman">2</tspan></text>
</g><path
       inkscape:connector-curvature="0"
       id="path62"
       style="fill:none;stroke:#000000;stroke-width:1;stroke-linecap:butt;stroke-linejoin:miter;stroke-miterlimit:3.79999995;stroke-opacity:1;stroke-dasharray:none"
       d="m 81.3,193 0,6.3 m 0,523.8 0,-6.3" /><g
       id="g64"><text
         id="text66"
         transform="matrix(0,1,1,0,89.9699,131.9)"><tspan
           id="tspan68"
           sodipodi:role="line"
           y="0"
           x="0 13 19.5 32.5"
           style="font-size:26px;font-variant:normal;font-weight:normal;writing-mode:lr-tb;fill:#000000;fill-opacity:1;fill-rule:nonzero;stroke:none;font-family:Times New Roman;-inkscape-font-specification:Times-Roman">2.05</tspan></text>
</g><path
       inkscape:connector-curvature="0"
       id="path70"
       style="fill:none;stroke:#000000;stroke-width:1;stroke-linecap:butt;stroke-linejoin:miter;stroke-miterlimit:3.79999995;stroke-opacity:1;stroke-dasharray:none"
       d="m 470.8,193 -6.3,0 m -383.2,0 6.3,0" /><g
       id="g72"><text
         id="text74"
         transform="matrix(0,1,1,0,505.47,180)"><tspan
           id="tspan76"
           sodipodi:role="line"
           y="0"
           x="0 13 19.5"
           style="font-size:26px;font-variant:normal;font-weight:normal;writing-mode:lr-tb;fill:#000000;fill-opacity:1;fill-rule:nonzero;stroke:none;font-family:Times New Roman;-inkscape-font-specification:Times-Roman">0.2</tspan></text>
</g><path
       inkscape:connector-curvature="0"
       id="path78"
       style="fill:none;stroke:#000000;stroke-width:1;stroke-linecap:butt;stroke-linejoin:miter;stroke-miterlimit:3.79999995;stroke-opacity:1;stroke-dasharray:none"
       d="m 470.8,246 -3.1,0 m -386.4,0 3.1,0 m 386.4,53 -6.3,0 m -383.2,0 6.3,0" /><g
       id="g80"><text
         id="text82"
         transform="matrix(0,1,1,0,505.47,286)"><tspan
           id="tspan84"
           sodipodi:role="line"
           y="0"
           x="0 13 19.5"
           style="font-size:26px;font-variant:normal;font-weight:normal;writing-mode:lr-tb;fill:#000000;fill-opacity:1;fill-rule:nonzero;stroke:none;font-family:Times New Roman;-inkscape-font-specification:Times-Roman">0.3</tspan></text>
</g><path
       inkscape:connector-curvature="0"
       id="path86"
       style="fill:none;stroke:#000000;stroke-width:1;stroke-linecap:butt;stroke-linejoin:miter;stroke-miterlimit:3.79999995;stroke-opacity:1;stroke-dasharray:none"
       d="m 470.8,352 -3.1,0 m -386.4,0 3.1,0 m 386.4,53 -6.3,0 m -383.2,0 6.3,0" /><g
       id="g88"><text
         id="text90"
         transform="matrix(0,1,1,0,505.47,392)"><tspan
           id="tspan92"
           sodipodi:role="line"
           y="0"
           x="0 13 19.5"
           style="font-size:26px;font-variant:normal;font-weight:normal;writing-mode:lr-tb;fill:#000000;fill-opacity:1;fill-rule:nonzero;stroke:none;font-family:Times New Roman;-inkscape-font-specification:Times-Roman">0.4</tspan></text>
</g><path
       inkscape:connector-curvature="0"
       id="path94"
       style="fill:none;stroke:#000000;stroke-width:1;stroke-linecap:butt;stroke-linejoin:miter;stroke-miterlimit:3.79999995;stroke-opacity:1;stroke-dasharray:none"
       d="m 470.8,458.1 -3.1,0 m -386.4,0 3.1,0 m 386.4,53 -6.3,0 m -383.2,0 6.3,0" /><g
       id="g96"><text
         id="text98"
         transform="matrix(0,1,1,0,505.47,498.1)"><tspan
           id="tspan100"
           sodipodi:role="line"
           y="0"
           x="0 13 19.5"
           style="font-size:26px;font-variant:normal;font-weight:normal;writing-mode:lr-tb;fill:#000000;fill-opacity:1;fill-rule:nonzero;stroke:none;font-family:Times New Roman;-inkscape-font-specification:Times-Roman">0.5</tspan></text>
</g><path
       inkscape:connector-curvature="0"
       id="path102"
       style="fill:none;stroke:#000000;stroke-width:1;stroke-linecap:butt;stroke-linejoin:miter;stroke-miterlimit:3.79999995;stroke-opacity:1;stroke-dasharray:none"
       d="m 470.8,564.1 -3.1,0 m -386.4,0 3.1,0 m 386.4,53 -6.3,0 m -383.2,0 6.3,0" /><g
       id="g104"><text
         id="text106"
         transform="matrix(0,1,1,0,505.47,604.1)"><tspan
           id="tspan108"
           sodipodi:role="line"
           y="0"
           x="0 13 19.5"
           style="font-size:26px;font-variant:normal;font-weight:normal;writing-mode:lr-tb;fill:#000000;fill-opacity:1;fill-rule:nonzero;stroke:none;font-family:Times New Roman;-inkscape-font-specification:Times-Roman">0.6</tspan></text>
</g><path
       inkscape:connector-curvature="0"
       id="path110"
       style="fill:none;stroke:#000000;stroke-width:1;stroke-linecap:butt;stroke-linejoin:miter;stroke-miterlimit:3.79999995;stroke-opacity:1;stroke-dasharray:none"
       d="m 470.8,670.1 -3.1,0 m -386.4,0 3.1,0 m 386.4,53 -6.3,0 m -383.2,0 6.3,0" /><g
       id="g112"><text
         id="text114"
         transform="matrix(0,1,1,0,505.47,710.1)"><tspan
           id="tspan116"
           sodipodi:role="line"
           y="0"
           x="0 13 19.5"
           style="font-size:26px;font-variant:normal;font-weight:normal;writing-mode:lr-tb;fill:#000000;fill-opacity:1;fill-rule:nonzero;stroke:none;font-family:Times New Roman;-inkscape-font-specification:Times-Roman">0.7</tspan></text>
</g><path
       inkscape:connector-curvature="0"
       id="path118"
       style="fill:none;stroke:#000000;stroke-width:1;stroke-linecap:butt;stroke-linejoin:miter;stroke-miterlimit:3.79999995;stroke-opacity:1;stroke-dasharray:none"
       d="m 81.3,193 389.5,0 0,530.1 -389.5,0 0,-530.1 z" /><path
       inkscape:connector-curvature="0"
       id="path132"
       style="fill:#000000;fill-opacity:1;fill-rule:nonzero;stroke:none"
       d="m 444.8,196.78 c -2.088,0 -3.78,-1.692 -3.78,-3.78 0,-2.088 1.692,-3.78 3.78,-3.78 2.088,0 3.78,1.692 3.78,3.78 0,2.088 -1.692,3.78 -3.78,3.78" /><path
       inkscape:connector-curvature="0"
       id="path134"
       style="fill:#000000;fill-opacity:1;fill-rule:nonzero;stroke:none"
       d="m 431.8,249.78 c -2.088,0 -3.78,-1.692 -3.78,-3.78 0,-2.088 1.692,-3.78 3.78,-3.78 2.088,0 3.78,1.692 3.78,3.78 0,2.088 -1.692,3.78 -3.78,3.78" /><path
       inkscape:connector-curvature="0"
       id="path136"
       style="fill:#000000;fill-opacity:1;fill-rule:nonzero;stroke:none"
       d="m 405.9,302.78 c -2.088,0 -3.78,-1.692 -3.78,-3.78 0,-2.088 1.692,-3.78 3.78,-3.78 2.088,0 3.78,1.692 3.78,3.78 0,2.088 -1.692,3.78 -3.78,3.78" /><path
       inkscape:connector-curvature="0"
       id="path138"
       style="fill:#000000;fill-opacity:1;fill-rule:nonzero;stroke:none"
       d="m 353.9,408.78 c -2.088,0 -3.78,-1.692 -3.78,-3.78 0,-2.088 1.692,-3.78 3.78,-3.78 2.088,0 3.78,1.692 3.78,3.78 0,2.088 -1.692,3.78 -3.78,3.78" /><path
       inkscape:connector-curvature="0"
       id="path140"
       style="fill:#000000;fill-opacity:1;fill-rule:nonzero;stroke:none"
       d="m 302,514.88 c -2.088,0 -3.78,-1.692 -3.78,-3.78 0,-2.088 1.692,-3.78 3.78,-3.78 2.088,0 3.78,1.692 3.78,3.78 0,2.088 -1.692,3.78 -3.78,3.78" /><path
       inkscape:connector-curvature="0"
       id="path142"
       style="fill:#000000;fill-opacity:1;fill-rule:nonzero;stroke:none"
       d="m 211.1,620.88 c -2.088,0 -3.78,-1.692 -3.78,-3.78 0,-2.088 1.692,-3.78 3.78,-3.78 2.088,0 3.78,1.692 3.78,3.78 0,2.088 -1.692,3.78 -3.78,3.78" /><path
       inkscape:connector-curvature="0"
       id="path144"
       style="fill:#000000;fill-opacity:1;fill-rule:nonzero;stroke:none"
       d="m 81.3,726.88 c -2.0875,0 -3.7801,-1.692 -3.7801,-3.78 0,-2.088 1.6926,-3.78 3.7801,-3.78 2.0875,0 3.7801,1.692 3.7801,3.78 0,2.088 -1.6926,3.78 -3.7801,3.78" /><path
       inkscape:connector-curvature="0"
       id="path156"
       style="fill:none;stroke:#000000;stroke-width:1;stroke-linecap:butt;stroke-linejoin:miter;stroke-miterlimit:3.79999995;stroke-opacity:1;stroke-dasharray:none"
       d="m 81.3,193 389.5,0 0,530.1 -389.5,0 0,-530.1 z" /><flowRoot
       xml:space="preserve"
       id="flowRoot3489-9"
       style="font-size:40px;font-style:normal;font-weight:normal;line-height:125%;letter-spacing:0px;word-spacing:0px;fill:#000000;fill-opacity:1;stroke:none;font-family:Sans"
       transform="matrix(0,0.8,0.8,0,422.23552,625.5585)"><flowRegion
         id="flowRegion3491-8"><rect
           id="rect3493-1"
           width="98.056145"
           height="81.848518"
           x="41.329449"
           y="100.48729" /></flowRegion><flowPara
         id="flowPara3495-99"
         style="font-size:40px;font-style:italic;font-variant:normal;font-weight:normal;font-stretch:normal;text-align:start;line-height:125%;writing-mode:lr-tb;text-anchor:start;font-family:Times New Roman;-inkscape-font-specification:'Times New Roman, Italic'"><flowSpan
           style="font-size:48px"
           id="flowSpan3236">P</flowSpan><flowSpan
           style="font-size:28px;baseline-shift:sub"
           id="flowSpan3497-1">β</flowSpan></flowPara></flowRoot><path
       style="fill:none;stroke:#f00000;stroke-width:1px;stroke-linecap:butt;stroke-linejoin:miter;stroke-opacity:1"
       d="m 241.81704,556.41848 32.2573,-6.70848 33.06768,-9.33625 36.84151,-14.9682 30.20255,-17.69429 47.2255,-21.07486 43.57878,-20.96461 41.56476,-23.85854 46.41512,-20.62894 54.43748,-24.0671 30.94341,-18.90986 48.97338,-33.4848 43.20239,-37.70948 40.7663,-44.55701 46.68127,-46.45584 47.86805,-60.12702 23.49407,-35.52762 14.32565,-19.48289"
       id="path3222"
       inkscape:connector-curvature="0"
       transform="matrix(0,0.8,0.8,0,0,0)"
       sodipodi:nodetypes="cccccccccccccccccc" /><g
       id="g4051"
       transform="translate(-1.6,16)"><flowRoot
         transform="matrix(0,0.8,0.8,0,9.4925214,25.459908)"
         style="font-size:40px;font-style:normal;font-weight:normal;line-height:125%;letter-spacing:0px;word-spacing:0px;fill:#000000;fill-opacity:1;stroke:none;font-family:Sans"
         id="flowRoot3489-8-0-8"
         xml:space="preserve"><flowRegion
           id="flowRegion3491-60-3-2"><rect
             y="100.48729"
             x="41.329449"
             height="73.207405"
             width="133.79803"
             id="rect3493-8-9-7" /></flowRegion><flowPara
           style="font-size:40px;font-style:italic;font-variant:normal;font-weight:normal;font-stretch:normal;text-align:start;line-height:125%;writing-mode:lr-tb;text-anchor:start;font-family:Times New Roman;-inkscape-font-specification:'Times New Roman, Italic'"
           id="flowPara3495-8-9-7"><flowSpan
             id="flowSpan3922-9-5-1"
             style="font-size:48px">J</flowSpan><flowSpan
             style="font-size:65.00091553%;baseline-shift:super"
             id="flowSpan4013">*(2)</flowSpan><flowSpan
             id="flowSpan3497-0-8-0"
             style="font-size:28px;baseline-shift:sub" /></flowPara></flowRoot><flowRoot
         transform="matrix(0,0.8,0.8,0,32.407239,42.306536)"
         style="font-size:40px;font-style:normal;font-weight:normal;line-height:125%;letter-spacing:0px;word-spacing:0px;fill:#000000;fill-opacity:1;stroke:none;font-family:Sans"
         id="flowRoot3489-8-0-8-7"
         xml:space="preserve"><flowRegion
           id="flowRegion3491-60-3-2-4"><rect
             y="100.48729"
             x="41.329449"
             height="49.706352"
             width="35.741894"
             id="rect3493-8-9-7-2" /></flowRegion><flowPara
           style="font-size:40px;font-style:italic;font-variant:normal;font-weight:normal;font-stretch:normal;text-align:start;line-height:125%;writing-mode:lr-tb;text-anchor:start;font-family:Times New Roman;-inkscape-font-specification:'Times New Roman, Italic'"
           id="flowPara3495-8-9-7-2"><flowSpan
             id="flowSpan3497-0-8-0-8"
             style="font-size:28px;baseline-shift:sub">αβ</flowSpan></flowPara></flowRoot></g></g></svg>