<?xml version="1.0" encoding="UTF-8" standalone="no"?>
<!-- Created with Inkscape (http://www.inkscape.org/) -->

<svg
   xmlns:dc="http://purl.org/dc/elements/1.1/"
   xmlns:cc="http://creativecommons.org/ns#"
   xmlns:rdf="http://www.w3.org/1999/02/22-rdf-syntax-ns#"
   xmlns:svg="http://www.w3.org/2000/svg"
   xmlns="http://www.w3.org/2000/svg"
   xmlns:sodipodi="http://sodipodi.sourceforge.net/DTD/sodipodi-0.dtd"
   xmlns:inkscape="http://www.inkscape.org/namespaces/inkscape"
   id="svg2"
   version="1.1"
   inkscape:version="0.48.3.1 r9886"
   width="990"
   height="765"
   xml:space="preserve"
   sodipodi:docname="delNbb-Nab.eps"><metadata
     id="metadata8"><rdf:RDF><cc:Work
         rdf:about=""><dc:format>image/svg+xml</dc:format><dc:type
           rdf:resource="http://purl.org/dc/dcmitype/StillImage" /><dc:title></dc:title></cc:Work></rdf:RDF></metadata><defs
     id="defs6" /><sodipodi:namedview
     pagecolor="#ffffff"
     bordercolor="#666666"
     borderopacity="1"
     objecttolerance="10"
     gridtolerance="10"
     guidetolerance="10"
     inkscape:pageopacity="0"
     inkscape:pageshadow="2"
     inkscape:window-width="1855"
     inkscape:window-height="1056"
     id="namedview4"
     showgrid="false"
     inkscape:zoom="1.1195057"
     inkscape:cx="495"
     inkscape:cy="382.5"
     inkscape:window-x="65"
     inkscape:window-y="24"
     inkscape:window-maximized="1"
     inkscape:current-layer="g10" /><g
     id="g10"
     inkscape:groupmode="layer"
     inkscape:label="ink_ext_XXXXXX"
     transform="matrix(0,1.25,1.25,0,0,0)"><path
       inkscape:connector-curvature="0"
       id="path14"
       style="fill:none;stroke:#000000;stroke-width:1;stroke-linecap:butt;stroke-linejoin:miter;stroke-miterlimit:3.79999995;stroke-opacity:1;stroke-dasharray:none"
       d="m 474,172.5 0,6.3 m 0,546.1 0,-6.3" /><g
       id="g16"><text
         id="text18"
         transform="matrix(0,1,1,0,482.33,117.925)"><tspan
           id="tspan20"
           sodipodi:role="line"
           y="0"
           x="0 8.3249998 20.825001 27.075001"
           style="font-size:25px;font-variant:normal;font-weight:normal;writing-mode:lr-tb;fill:#000000;fill-opacity:1;fill-rule:nonzero;stroke:none;font-family:Times New Roman;-inkscape-font-specification:Times-Roman">-0.1</tspan></text>
</g><path
       inkscape:connector-curvature="0"
       id="path22"
       style="fill:none;stroke:#000000;stroke-width:1;stroke-linecap:butt;stroke-linejoin:miter;stroke-miterlimit:3.79999995;stroke-opacity:1;stroke-dasharray:none"
       d="m 424.8,172.5 0,6.3 m 0,546.1 0,-6.3" /><g
       id="g24"><text
         id="text26"
         transform="matrix(0,1,1,0,433.13,145)"><tspan
           id="tspan28"
           y="0"
           x="0"
           style="font-size:25px;font-variant:normal;font-weight:normal;writing-mode:lr-tb;fill:#000000;fill-opacity:1;fill-rule:nonzero;stroke:none;font-family:Times New Roman;-inkscape-font-specification:Times-Roman">0</tspan></text>
</g><path
       inkscape:connector-curvature="0"
       id="path30"
       style="fill:none;stroke:#000000;stroke-width:1;stroke-linecap:butt;stroke-linejoin:miter;stroke-miterlimit:3.79999995;stroke-opacity:1;stroke-dasharray:none"
       d="m 375.5,172.5 0,6.3 m 0,546.1 0,-6.3" /><g
       id="g32"><text
         id="text34"
         transform="matrix(0,1,1,0,383.83,126.25)"><tspan
           id="tspan36"
           sodipodi:role="line"
           y="0"
           x="0 12.5 18.75"
           style="font-size:25px;font-variant:normal;font-weight:normal;writing-mode:lr-tb;fill:#000000;fill-opacity:1;fill-rule:nonzero;stroke:none;font-family:Times New Roman;-inkscape-font-specification:Times-Roman">0.1</tspan></text>
</g><path
       inkscape:connector-curvature="0"
       id="path38"
       style="fill:none;stroke:#000000;stroke-width:1;stroke-linecap:butt;stroke-linejoin:miter;stroke-miterlimit:3.79999995;stroke-opacity:1;stroke-dasharray:none"
       d="m 326.3,172.5 0,6.3 m 0,546.1 0,-6.3" /><g
       id="g40"><text
         id="text42"
         transform="matrix(0,1,1,0,334.63,126.25)"><tspan
           id="tspan44"
           sodipodi:role="line"
           y="0"
           x="0 12.5 18.75"
           style="font-size:25px;font-variant:normal;font-weight:normal;writing-mode:lr-tb;fill:#000000;fill-opacity:1;fill-rule:nonzero;stroke:none;font-family:Times New Roman;-inkscape-font-specification:Times-Roman">0.2</tspan></text>
</g><path
       inkscape:connector-curvature="0"
       id="path46"
       style="fill:none;stroke:#000000;stroke-width:1;stroke-linecap:butt;stroke-linejoin:miter;stroke-miterlimit:3.79999995;stroke-opacity:1;stroke-dasharray:none"
       d="m 277,172.5 0,6.3 m 0,546.1 0,-6.3" /><g
       id="g48"><text
         id="text50"
         transform="matrix(0,1,1,0,285.33,126.25)"><tspan
           id="tspan52"
           sodipodi:role="line"
           y="0"
           x="0 12.5 18.75"
           style="font-size:25px;font-variant:normal;font-weight:normal;writing-mode:lr-tb;fill:#000000;fill-opacity:1;fill-rule:nonzero;stroke:none;font-family:Times New Roman;-inkscape-font-specification:Times-Roman">0.3</tspan></text>
</g><path
       inkscape:connector-curvature="0"
       id="path54"
       style="fill:none;stroke:#000000;stroke-width:1;stroke-linecap:butt;stroke-linejoin:miter;stroke-miterlimit:3.79999995;stroke-opacity:1;stroke-dasharray:none"
       d="m 227.8,172.5 0,6.3 m 0,546.1 0,-6.3" /><g
       id="g56"><text
         id="text58"
         transform="matrix(0,1,1,0,236.13,126.25)"><tspan
           id="tspan60"
           sodipodi:role="line"
           y="0"
           x="0 12.5 18.75"
           style="font-size:25px;font-variant:normal;font-weight:normal;writing-mode:lr-tb;fill:#000000;fill-opacity:1;fill-rule:nonzero;stroke:none;font-family:Times New Roman;-inkscape-font-specification:Times-Roman">0.4</tspan></text>
</g><path
       inkscape:connector-curvature="0"
       id="path62"
       style="fill:none;stroke:#000000;stroke-width:1;stroke-linecap:butt;stroke-linejoin:miter;stroke-miterlimit:3.79999995;stroke-opacity:1;stroke-dasharray:none"
       d="m 178.6,172.5 0,6.3 m 0,546.1 0,-6.3" /><g
       id="g64"><text
         id="text66"
         transform="matrix(0,1,1,0,186.93,126.25)"><tspan
           id="tspan68"
           sodipodi:role="line"
           y="0"
           x="0 12.5 18.75"
           style="font-size:25px;font-variant:normal;font-weight:normal;writing-mode:lr-tb;fill:#000000;fill-opacity:1;fill-rule:nonzero;stroke:none;font-family:Times New Roman;-inkscape-font-specification:Times-Roman">0.5</tspan></text>
</g><path
       inkscape:connector-curvature="0"
       id="path70"
       style="fill:none;stroke:#000000;stroke-width:1;stroke-linecap:butt;stroke-linejoin:miter;stroke-miterlimit:3.79999995;stroke-opacity:1;stroke-dasharray:none"
       d="m 129.3,172.5 0,6.3 m 0,546.1 0,-6.3" /><g
       id="g72"><text
         id="text74"
         transform="matrix(0,1,1,0,137.63,126.25)"><tspan
           id="tspan76"
           sodipodi:role="line"
           y="0"
           x="0 12.5 18.75"
           style="font-size:25px;font-variant:normal;font-weight:normal;writing-mode:lr-tb;fill:#000000;fill-opacity:1;fill-rule:nonzero;stroke:none;font-family:Times New Roman;-inkscape-font-specification:Times-Roman">0.6</tspan></text>
</g><path
       inkscape:connector-curvature="0"
       id="path78"
       style="fill:none;stroke:#000000;stroke-width:1;stroke-linecap:butt;stroke-linejoin:miter;stroke-miterlimit:3.79999995;stroke-opacity:1;stroke-dasharray:none"
       d="m 80.1,172.5 0,6.3 m 0,546.1 0,-6.3" /><g
       id="g80"><text
         id="text82"
         transform="matrix(0,1,1,0,88.4301,126.25)"><tspan
           id="tspan84"
           sodipodi:role="line"
           y="0"
           x="0 12.5 18.75"
           style="font-size:25px;font-variant:normal;font-weight:normal;writing-mode:lr-tb;fill:#000000;fill-opacity:1;fill-rule:nonzero;stroke:none;font-family:Times New Roman;-inkscape-font-specification:Times-Roman">0.7</tspan></text>
</g><path
       inkscape:connector-curvature="0"
       id="path86"
       style="fill:none;stroke:#000000;stroke-width:1;stroke-linecap:butt;stroke-linejoin:miter;stroke-miterlimit:3.79999995;stroke-opacity:1;stroke-dasharray:none"
       d="m 474,172.5 -6.3,0 m -387.6,0 6.3,0" /><g
       id="g88"><text
         id="text90"
         transform="matrix(0,1,1,0,507.33,160)"><tspan
           id="tspan92"
           sodipodi:role="line"
           y="0"
           x="0 12.5 18.75"
           style="font-size:25px;font-variant:normal;font-weight:normal;writing-mode:lr-tb;fill:#000000;fill-opacity:1;fill-rule:nonzero;stroke:none;font-family:Times New Roman;-inkscape-font-specification:Times-Roman">0.5</tspan></text>
</g><path
       inkscape:connector-curvature="0"
       id="path94"
       style="fill:none;stroke:#000000;stroke-width:1;stroke-linecap:butt;stroke-linejoin:miter;stroke-miterlimit:3.79999995;stroke-opacity:1;stroke-dasharray:none"
       d="m 474,283 -6.3,0 m -387.6,0 6.3,0" /><g
       id="g96"><text
         id="text98"
         transform="matrix(0,1,1,0,507.33,279.875)"><tspan
           id="tspan100"
           y="0"
           x="0"
           style="font-size:25px;font-variant:normal;font-weight:normal;writing-mode:lr-tb;fill:#000000;fill-opacity:1;fill-rule:nonzero;stroke:none;font-family:Times New Roman;-inkscape-font-specification:Times-Roman">1</tspan></text>
</g><path
       inkscape:connector-curvature="0"
       id="path102"
       style="fill:none;stroke:#000000;stroke-width:1;stroke-linecap:butt;stroke-linejoin:miter;stroke-miterlimit:3.79999995;stroke-opacity:1;stroke-dasharray:none"
       d="m 474,393.5 -6.3,0 m -387.6,0 6.3,0" /><g
       id="g104"><text
         id="text106"
         transform="matrix(0,1,1,0,507.33,381)"><tspan
           id="tspan108"
           sodipodi:role="line"
           y="0"
           x="0 12.5 18.75"
           style="font-size:25px;font-variant:normal;font-weight:normal;writing-mode:lr-tb;fill:#000000;fill-opacity:1;fill-rule:nonzero;stroke:none;font-family:Times New Roman;-inkscape-font-specification:Times-Roman">1.5</tspan></text>
</g><path
       inkscape:connector-curvature="0"
       id="path110"
       style="fill:none;stroke:#000000;stroke-width:1;stroke-linecap:butt;stroke-linejoin:miter;stroke-miterlimit:3.79999995;stroke-opacity:1;stroke-dasharray:none"
       d="m 474,503.9 -6.3,0 m -387.6,0 6.3,0" /><g
       id="g112"><text
         id="text114"
         transform="matrix(0,1,1,0,507.33,500.775)"><tspan
           id="tspan116"
           y="0"
           x="0"
           style="font-size:25px;font-variant:normal;font-weight:normal;writing-mode:lr-tb;fill:#000000;fill-opacity:1;fill-rule:nonzero;stroke:none;font-family:Times New Roman;-inkscape-font-specification:Times-Roman">2</tspan></text>
</g><path
       inkscape:connector-curvature="0"
       id="path118"
       style="fill:none;stroke:#000000;stroke-width:1;stroke-linecap:butt;stroke-linejoin:miter;stroke-miterlimit:3.79999995;stroke-opacity:1;stroke-dasharray:none"
       d="m 474,614.4 -6.3,0 m -387.6,0 6.3,0" /><g
       id="g120"><text
         id="text122"
         transform="matrix(0,1,1,0,507.33,601.9)"><tspan
           id="tspan124"
           sodipodi:role="line"
           y="0"
           x="0 12.5 18.75"
           style="font-size:25px;font-variant:normal;font-weight:normal;writing-mode:lr-tb;fill:#000000;fill-opacity:1;fill-rule:nonzero;stroke:none;font-family:Times New Roman;-inkscape-font-specification:Times-Roman">2.5</tspan></text>
</g><path
       inkscape:connector-curvature="0"
       id="path126"
       style="fill:none;stroke:#000000;stroke-width:1;stroke-linecap:butt;stroke-linejoin:miter;stroke-miterlimit:3.79999995;stroke-opacity:1;stroke-dasharray:none"
       d="m 474,724.9 -6.3,0 m -387.6,0 6.3,0" /><g
       id="g128"><text
         id="text130"
         transform="matrix(0,1,1,0,507.33,721.775)"><tspan
           id="tspan132"
           y="0"
           x="0"
           style="font-size:25px;font-variant:normal;font-weight:normal;writing-mode:lr-tb;fill:#000000;fill-opacity:1;fill-rule:nonzero;stroke:none;font-family:Times New Roman;-inkscape-font-specification:Times-Roman">3</tspan></text>
</g><path
       inkscape:connector-curvature="0"
       id="path134"
       style="fill:none;stroke:#000000;stroke-width:1;stroke-linecap:butt;stroke-linejoin:miter;stroke-miterlimit:3.79999995;stroke-opacity:1;stroke-dasharray:none"
       d="m 80.1,172.5 393.9,0 0,552.4 -393.9,0 0,-552.4 z" /><path
       inkscape:connector-curvature="0"
       id="path148"
       style="fill:#000000;fill-opacity:1;fill-rule:nonzero;stroke:none"
       d="m 245.7,198.065 c -1.913,0 -3.465,-1.552 -3.465,-3.465 0,-1.913 1.552,-3.465 3.465,-3.465 1.913,0 3.465,1.552 3.465,3.465 0,1.913 -1.552,3.465 -3.465,3.465" /><path
       inkscape:connector-curvature="0"
       id="path150"
       style="fill:#000000;fill-opacity:1;fill-rule:nonzero;stroke:none"
       d="m 242.7,209.065 c -1.913,0 -3.465,-1.552 -3.465,-3.465 0,-1.913 1.552,-3.465 3.465,-3.465 1.913,0 3.465,1.552 3.465,3.465 0,1.913 -1.552,3.465 -3.465,3.465" /><path
       inkscape:connector-curvature="0"
       id="path152"
       style="fill:#000000;fill-opacity:1;fill-rule:nonzero;stroke:none"
       d="m 247.9,220.165 c -1.913,0 -3.465,-1.552 -3.465,-3.465 0,-1.913 1.552,-3.465 3.465,-3.465 1.913,0 3.465,1.552 3.465,3.465 0,1.913 -1.552,3.465 -3.465,3.465" /><path
       inkscape:connector-curvature="0"
       id="path154"
       style="fill:#000000;fill-opacity:1;fill-rule:nonzero;stroke:none"
       d="m 253.9,231.165 c -1.913,0 -3.465,-1.552 -3.465,-3.465 0,-1.913 1.552,-3.465 3.465,-3.465 1.913,0 3.465,1.552 3.465,3.465 0,1.913 -1.552,3.465 -3.465,3.465" /><path
       inkscape:connector-curvature="0"
       id="path156"
       style="fill:#000000;fill-opacity:1;fill-rule:nonzero;stroke:none"
       d="m 256.1,242.265 c -1.913,0 -3.465,-1.552 -3.465,-3.465 0,-1.913 1.552,-3.465 3.465,-3.465 1.913,0 3.465,1.552 3.465,3.465 0,1.913 -1.552,3.465 -3.465,3.465" /><path
       inkscape:connector-curvature="0"
       id="path158"
       style="fill:#000000;fill-opacity:1;fill-rule:nonzero;stroke:none"
       d="m 249.9,253.265 c -1.913,0 -3.465,-1.552 -3.465,-3.465 0,-1.913 1.552,-3.465 3.465,-3.465 1.913,0 3.465,1.552 3.465,3.465 0,1.913 -1.552,3.465 -3.465,3.465" /><path
       inkscape:connector-curvature="0"
       id="path160"
       style="fill:#000000;fill-opacity:1;fill-rule:nonzero;stroke:none"
       d="m 257.5,264.365 c -1.913,0 -3.465,-1.552 -3.465,-3.465 0,-1.913 1.552,-3.465 3.465,-3.465 1.913,0 3.465,1.552 3.465,3.465 0,1.913 -1.552,3.465 -3.465,3.465" /><path
       inkscape:connector-curvature="0"
       id="path162"
       style="fill:#000000;fill-opacity:1;fill-rule:nonzero;stroke:none"
       d="m 262.9,275.365 c -1.913,0 -3.465,-1.552 -3.465,-3.465 0,-1.913 1.552,-3.465 3.465,-3.465 1.913,0 3.465,1.552 3.465,3.465 0,1.913 -1.552,3.465 -3.465,3.465" /><path
       inkscape:connector-curvature="0"
       id="path164"
       style="fill:#000000;fill-opacity:1;fill-rule:nonzero;stroke:none"
       d="m 426.4,286.465 c -1.913,0 -3.465,-1.552 -3.465,-3.465 0,-1.913 1.552,-3.465 3.465,-3.465 1.913,0 3.465,1.552 3.465,3.465 0,1.913 -1.552,3.465 -3.465,3.465" /><path
       inkscape:connector-curvature="0"
       id="path166"
       style="fill:#000000;fill-opacity:1;fill-rule:nonzero;stroke:none"
       d="m 442.3,297.465 c -1.913,0 -3.465,-1.552 -3.465,-3.465 0,-1.913 1.552,-3.465 3.465,-3.465 1.913,0 3.465,1.552 3.465,3.465 0,1.913 -1.552,3.465 -3.465,3.465" /><path
       inkscape:connector-curvature="0"
       id="path168"
       style="fill:#000000;fill-opacity:1;fill-rule:nonzero;stroke:none"
       d="m 228.8,308.565 c -1.913,0 -3.465,-1.552 -3.465,-3.465 0,-1.913 1.552,-3.465 3.465,-3.465 1.913,0 3.465,1.552 3.465,3.465 0,1.913 -1.552,3.465 -3.465,3.465" /><path
       inkscape:connector-curvature="0"
       id="path170"
       style="fill:#000000;fill-opacity:1;fill-rule:nonzero;stroke:none"
       d="m 124.2,319.565 c -1.913,0 -3.465,-1.552 -3.465,-3.465 0,-1.913 1.552,-3.465 3.465,-3.465 1.913,0 3.465,1.552 3.465,3.465 0,1.913 -1.552,3.465 -3.465,3.465" /><path
       inkscape:connector-curvature="0"
       id="path172"
       style="fill:#000000;fill-opacity:1;fill-rule:nonzero;stroke:none"
       d="m 111.2,330.665 c -1.913,0 -3.465,-1.552 -3.465,-3.465 0,-1.913 1.552,-3.465 3.465,-3.465 1.913,0 3.465,1.552 3.465,3.465 0,1.913 -1.552,3.465 -3.465,3.465" /><path
       inkscape:connector-curvature="0"
       id="path174"
       style="fill:#000000;fill-opacity:1;fill-rule:nonzero;stroke:none"
       d="m 108.6,341.665 c -1.913,0 -3.465,-1.552 -3.465,-3.465 0,-1.913 1.552,-3.465 3.465,-3.465 1.913,0 3.465,1.552 3.465,3.465 0,1.913 -1.552,3.465 -3.465,3.465" /><path
       inkscape:connector-curvature="0"
       id="path176"
       style="fill:#000000;fill-opacity:1;fill-rule:nonzero;stroke:none"
       d="m 109.2,352.765 c -1.913,0 -3.465,-1.552 -3.465,-3.465 0,-1.913 1.552,-3.465 3.465,-3.465 1.913,0 3.465,1.552 3.465,3.465 0,1.913 -1.552,3.465 -3.465,3.465" /><path
       inkscape:connector-curvature="0"
       id="path178"
       style="fill:#000000;fill-opacity:1;fill-rule:nonzero;stroke:none"
       d="m 113,363.765 c -1.913,0 -3.465,-1.552 -3.465,-3.465 0,-1.913 1.552,-3.465 3.465,-3.465 1.913,0 3.465,1.552 3.465,3.465 0,1.913 -1.552,3.465 -3.465,3.465" /><path
       inkscape:connector-curvature="0"
       id="path180"
       style="fill:#000000;fill-opacity:1;fill-rule:nonzero;stroke:none"
       d="m 112.5,374.865 c -1.913,0 -3.465,-1.552 -3.465,-3.465 0,-1.913 1.552,-3.465 3.465,-3.465 1.913,0 3.465,1.552 3.465,3.465 0,1.913 -1.552,3.465 -3.465,3.465" /><path
       inkscape:connector-curvature="0"
       id="path182"
       style="fill:#000000;fill-opacity:1;fill-rule:nonzero;stroke:none"
       d="m 114.6,385.865 c -1.913,0 -3.465,-1.552 -3.465,-3.465 0,-1.913 1.552,-3.465 3.465,-3.465 1.913,0 3.465,1.552 3.465,3.465 0,1.913 -1.552,3.465 -3.465,3.465" /><path
       inkscape:connector-curvature="0"
       id="path184"
       style="fill:#000000;fill-opacity:1;fill-rule:nonzero;stroke:none"
       d="m 118,396.965 c -1.913,0 -3.465,-1.552 -3.465,-3.465 0,-1.913 1.552,-3.465 3.465,-3.465 1.913,0 3.465,1.552 3.465,3.465 0,1.913 -1.552,3.465 -3.465,3.465" /><path
       inkscape:connector-curvature="0"
       id="path186"
       style="fill:#000000;fill-opacity:1;fill-rule:nonzero;stroke:none"
       d="m 122.8,407.965 c -1.913,0 -3.465,-1.552 -3.465,-3.465 0,-1.913 1.552,-3.465 3.465,-3.465 1.913,0 3.465,1.552 3.465,3.465 0,1.913 -1.552,3.465 -3.465,3.465" /><path
       inkscape:connector-curvature="0"
       id="path188"
       style="fill:#000000;fill-opacity:1;fill-rule:nonzero;stroke:none"
       d="m 127.5,419.065 c -1.913,0 -3.465,-1.552 -3.465,-3.465 0,-1.913 1.552,-3.465 3.465,-3.465 1.913,0 3.465,1.552 3.465,3.465 0,1.913 -1.552,3.465 -3.465,3.465" /><path
       inkscape:connector-curvature="0"
       id="path190"
       style="fill:#000000;fill-opacity:1;fill-rule:nonzero;stroke:none"
       d="m 131.9,430.065 c -1.913,0 -3.465,-1.552 -3.465,-3.465 0,-1.913 1.552,-3.465 3.465,-3.465 1.913,0 3.465,1.552 3.465,3.465 0,1.913 -1.552,3.465 -3.465,3.465" /><path
       inkscape:connector-curvature="0"
       id="path192"
       style="fill:#000000;fill-opacity:1;fill-rule:nonzero;stroke:none"
       d="m 135.9,441.165 c -1.913,0 -3.465,-1.552 -3.465,-3.465 0,-1.913 1.552,-3.465 3.465,-3.465 1.913,0 3.465,1.552 3.465,3.465 0,1.913 -1.552,3.465 -3.465,3.465" /><path
       inkscape:connector-curvature="0"
       id="path194"
       style="fill:#000000;fill-opacity:1;fill-rule:nonzero;stroke:none"
       d="m 139,452.165 c -1.913,0 -3.465,-1.552 -3.465,-3.465 0,-1.913 1.552,-3.465 3.465,-3.465 1.913,0 3.465,1.552 3.465,3.465 0,1.913 -1.552,3.465 -3.465,3.465" /><path
       inkscape:connector-curvature="0"
       id="path196"
       style="fill:#000000;fill-opacity:1;fill-rule:nonzero;stroke:none"
       d="m 140,463.165 c -1.913,0 -3.465,-1.552 -3.465,-3.465 0,-1.913 1.552,-3.465 3.465,-3.465 1.913,0 3.465,1.552 3.465,3.465 0,1.913 -1.552,3.465 -3.465,3.465" /><path
       inkscape:connector-curvature="0"
       id="path198"
       style="fill:#000000;fill-opacity:1;fill-rule:nonzero;stroke:none"
       d="m 140,474.265 c -1.913,0 -3.465,-1.552 -3.465,-3.465 0,-1.913 1.552,-3.465 3.465,-3.465 1.913,0 3.465,1.552 3.465,3.465 0,1.913 -1.552,3.465 -3.465,3.465" /><path
       inkscape:connector-curvature="0"
       id="path200"
       style="fill:#000000;fill-opacity:1;fill-rule:nonzero;stroke:none"
       d="m 138.7,485.265 c -1.913,0 -3.465,-1.552 -3.465,-3.465 0,-1.913 1.552,-3.465 3.465,-3.465 1.913,0 3.465,1.552 3.465,3.465 0,1.913 -1.552,3.465 -3.465,3.465" /><path
       inkscape:connector-curvature="0"
       id="path202"
       style="fill:#000000;fill-opacity:1;fill-rule:nonzero;stroke:none"
       d="m 137.2,496.365 c -1.913,0 -3.465,-1.552 -3.465,-3.465 0,-1.913 1.552,-3.465 3.465,-3.465 1.913,0 3.465,1.552 3.465,3.465 0,1.913 -1.552,3.465 -3.465,3.465" /><path
       inkscape:connector-curvature="0"
       id="path204"
       style="fill:#000000;fill-opacity:1;fill-rule:nonzero;stroke:none"
       d="m 136.1,507.365 c -1.913,0 -3.465,-1.552 -3.465,-3.465 0,-1.913 1.552,-3.465 3.465,-3.465 1.913,0 3.465,1.552 3.465,3.465 0,1.913 -1.552,3.465 -3.465,3.465" /><path
       inkscape:connector-curvature="0"
       id="path206"
       style="fill:#000000;fill-opacity:1;fill-rule:nonzero;stroke:none"
       d="m 136.5,518.465 c -1.913,0 -3.465,-1.552 -3.465,-3.465 0,-1.913 1.552,-3.465 3.465,-3.465 1.913,0 3.465,1.552 3.465,3.465 0,1.913 -1.552,3.465 -3.465,3.465" /><path
       inkscape:connector-curvature="0"
       id="path208"
       style="fill:#000000;fill-opacity:1;fill-rule:nonzero;stroke:none"
       d="m 138.7,529.465 c -1.913,0 -3.465,-1.552 -3.465,-3.465 0,-1.913 1.552,-3.465 3.465,-3.465 1.913,0 3.465,1.552 3.465,3.465 0,1.913 -1.552,3.465 -3.465,3.465" /><path
       inkscape:connector-curvature="0"
       id="path210"
       style="fill:#000000;fill-opacity:1;fill-rule:nonzero;stroke:none"
       d="m 141.5,540.565 c -1.913,0 -3.465,-1.552 -3.465,-3.465 0,-1.913 1.552,-3.465 3.465,-3.465 1.913,0 3.465,1.552 3.465,3.465 0,1.913 -1.552,3.465 -3.465,3.465" /><path
       inkscape:connector-curvature="0"
       id="path212"
       style="fill:#000000;fill-opacity:1;fill-rule:nonzero;stroke:none"
       d="m 147.1,551.565 c -1.913,0 -3.465,-1.552 -3.465,-3.465 0,-1.913 1.552,-3.465 3.465,-3.465 1.913,0 3.465,1.552 3.465,3.465 0,1.913 -1.552,3.465 -3.465,3.465" /><path
       inkscape:connector-curvature="0"
       id="path214"
       style="fill:#000000;fill-opacity:1;fill-rule:nonzero;stroke:none"
       d="m 154.2,562.665 c -1.913,0 -3.465,-1.552 -3.465,-3.465 0,-1.913 1.552,-3.465 3.465,-3.465 1.913,0 3.465,1.552 3.465,3.465 0,1.913 -1.552,3.465 -3.465,3.465" /><path
       inkscape:connector-curvature="0"
       id="path216"
       style="fill:#000000;fill-opacity:1;fill-rule:nonzero;stroke:none"
       d="m 161.7,573.665 c -1.913,0 -3.465,-1.552 -3.465,-3.465 0,-1.913 1.552,-3.465 3.465,-3.465 1.913,0 3.465,1.552 3.465,3.465 0,1.913 -1.552,3.465 -3.465,3.465" /><path
       inkscape:connector-curvature="0"
       id="path218"
       style="fill:#000000;fill-opacity:1;fill-rule:nonzero;stroke:none"
       d="m 158.4,584.765 c -1.913,0 -3.465,-1.552 -3.465,-3.465 0,-1.913 1.552,-3.465 3.465,-3.465 1.913,0 3.465,1.552 3.465,3.465 0,1.913 -1.552,3.465 -3.465,3.465" /><path
       inkscape:connector-curvature="0"
       id="path220"
       style="fill:#000000;fill-opacity:1;fill-rule:nonzero;stroke:none"
       d="m 152.9,595.765 c -1.913,0 -3.465,-1.552 -3.465,-3.465 0,-1.913 1.552,-3.465 3.465,-3.465 1.913,0 3.465,1.552 3.465,3.465 0,1.913 -1.552,3.465 -3.465,3.465" /><path
       inkscape:connector-curvature="0"
       id="path222"
       style="fill:#000000;fill-opacity:1;fill-rule:nonzero;stroke:none"
       d="m 148,606.865 c -1.913,0 -3.465,-1.552 -3.465,-3.465 0,-1.913 1.552,-3.465 3.465,-3.465 1.913,0 3.465,1.552 3.465,3.465 0,1.913 -1.552,3.465 -3.465,3.465" /><path
       inkscape:connector-curvature="0"
       id="path224"
       style="fill:#000000;fill-opacity:1;fill-rule:nonzero;stroke:none"
       d="m 143.9,617.865 c -1.913,0 -3.465,-1.552 -3.465,-3.465 0,-1.913 1.552,-3.465 3.465,-3.465 1.913,0 3.465,1.552 3.465,3.465 0,1.913 -1.552,3.465 -3.465,3.465" /><path
       inkscape:connector-curvature="0"
       id="path226"
       style="fill:#000000;fill-opacity:1;fill-rule:nonzero;stroke:none"
       d="m 139.4,628.965 c -1.913,0 -3.465,-1.552 -3.465,-3.465 0,-1.913 1.552,-3.465 3.465,-3.465 1.913,0 3.465,1.552 3.465,3.465 0,1.913 -1.552,3.465 -3.465,3.465" /><path
       inkscape:connector-curvature="0"
       id="path228"
       style="fill:#000000;fill-opacity:1;fill-rule:nonzero;stroke:none"
       d="m 134.9,639.965 c -1.913,0 -3.465,-1.552 -3.465,-3.465 0,-1.913 1.552,-3.465 3.465,-3.465 1.913,0 3.465,1.552 3.465,3.465 0,1.913 -1.552,3.465 -3.465,3.465" /><path
       inkscape:connector-curvature="0"
       id="path230"
       style="fill:#000000;fill-opacity:1;fill-rule:nonzero;stroke:none"
       d="m 129.2,651.065 c -1.913,0 -3.465,-1.552 -3.465,-3.465 0,-1.913 1.552,-3.465 3.465,-3.465 1.913,0 3.465,1.552 3.465,3.465 0,1.913 -1.552,3.465 -3.465,3.465" /><path
       inkscape:connector-curvature="0"
       id="path232"
       style="fill:#000000;fill-opacity:1;fill-rule:nonzero;stroke:none"
       d="m 124.8,662.065 c -1.913,0 -3.465,-1.552 -3.465,-3.465 0,-1.913 1.552,-3.465 3.465,-3.465 1.913,0 3.465,1.552 3.465,3.465 0,1.913 -1.552,3.465 -3.465,3.465" /><path
       inkscape:connector-curvature="0"
       id="path234"
       style="fill:#000000;fill-opacity:1;fill-rule:nonzero;stroke:none"
       d="m 123.5,673.165 c -1.913,0 -3.465,-1.552 -3.465,-3.465 0,-1.913 1.552,-3.465 3.465,-3.465 1.913,0 3.465,1.552 3.465,3.465 0,1.913 -1.552,3.465 -3.465,3.465" /><path
       inkscape:connector-curvature="0"
       id="path236"
       style="fill:#000000;fill-opacity:1;fill-rule:nonzero;stroke:none"
       d="m 114.9,684.165 c -1.913,0 -3.465,-1.552 -3.465,-3.465 0,-1.913 1.552,-3.465 3.465,-3.465 1.913,0 3.465,1.552 3.465,3.465 0,1.913 -1.552,3.465 -3.465,3.465" /><path
       inkscape:connector-curvature="0"
       id="path238"
       style="fill:#000000;fill-opacity:1;fill-rule:nonzero;stroke:none"
       d="m 122.6,695.265 c -1.913,0 -3.465,-1.552 -3.465,-3.465 0,-1.913 1.552,-3.465 3.465,-3.465 1.913,0 3.465,1.552 3.465,3.465 0,1.913 -1.552,3.465 -3.465,3.465" /><path
       inkscape:connector-curvature="0"
       id="path240"
       style="fill:#000000;fill-opacity:1;fill-rule:nonzero;stroke:none"
       d="m 114.3,706.265 c -1.913,0 -3.465,-1.552 -3.465,-3.465 0,-1.913 1.552,-3.465 3.465,-3.465 1.913,0 3.465,1.552 3.465,3.465 0,1.913 -1.552,3.465 -3.465,3.465" /><path
       inkscape:connector-curvature="0"
       id="path242"
       style="fill:#000000;fill-opacity:1;fill-rule:nonzero;stroke:none"
       d="m 121.5,717.365 c -1.913,0 -3.465,-1.552 -3.465,-3.465 0,-1.913 1.552,-3.465 3.465,-3.465 1.913,0 3.465,1.552 3.465,3.465 0,1.913 -1.552,3.465 -3.465,3.465" /><path
       inkscape:connector-curvature="0"
       id="path244"
       style="fill:#000000;fill-opacity:1;fill-rule:nonzero;stroke:none"
       d="m 119,728.365 c -1.913,0 -3.465,-1.552 -3.465,-3.465 0,-1.913 1.552,-3.465 3.465,-3.465 1.913,0 3.465,1.552 3.465,3.465 0,1.913 -1.552,3.465 -3.465,3.465" /><path
       inkscape:connector-curvature="0"
       id="path248"
       style="fill:none;stroke:#000000;stroke-width:1;stroke-linecap:butt;stroke-linejoin:miter;stroke-miterlimit:3.79999995;stroke-opacity:1;stroke-dasharray:none"
       d="m 80.1,172.5 393.9,0 0,552.4 -393.9,0 0,-552.4 z" /><g
       id="g8212"
       transform="matrix(0,0.8,0.8,0,-706.15997,212.40735)"><flowRoot
         transform="translate(-265.45412,872.13721)"
         style="font-size:40px;font-style:normal;font-weight:normal;line-height:125%;letter-spacing:0px;word-spacing:0px;fill:#000000;fill-opacity:1;stroke:none;font-family:Sans"
         id="flowRoot3489-2-1-85-4-7"
         xml:space="preserve"><flowRegion
           id="flowRegion3491-7-2-7-5-0"><rect
             y="100.48729"
             x="41.329449"
             height="80.115768"
             width="152.07167"
             id="rect3493-3-8-1-3-1" /></flowRegion><flowPara
           style="font-size:40px;font-style:italic;font-variant:normal;font-weight:normal;font-stretch:normal;text-align:start;line-height:125%;writing-mode:lr-tb;text-anchor:start;font-family:Times New Roman;-inkscape-font-specification:'Times New Roman, Italic'"
           id="flowPara3495-5-5-1-9-6"><flowSpan
             id="flowSpan5288-6-9-3"
             style="font-size:48px"><flowSpan
   id="flowSpan5974"
   style="font-style:normal;-inkscape-font-specification:'Times New Roman,'">Δ</flowSpan>P</flowSpan><flowSpan
             style="font-size:28px;baseline-shift:sub"
             id="flowSpan5296-7-6-6">ββ</flowSpan></flowPara></flowRoot><flowRoot
         transform="translate(-269.08675,931.60726)"
         style="font-size:40px;font-style:normal;font-weight:normal;line-height:125%;letter-spacing:0px;word-spacing:0px;fill:#000000;fill-opacity:1;stroke:none;font-family:Sans"
         id="flowRoot3489-2-1-85-4-7-4"
         xml:space="preserve"><flowRegion
           id="flowRegion3491-7-2-7-5-0-8"><rect
             y="100.48729"
             x="41.329449"
             height="80.115768"
             width="152.07167"
             id="rect3493-3-8-1-3-1-4" /></flowRegion><flowPara
           style="font-size:40px;font-style:italic;font-variant:normal;font-weight:normal;font-stretch:normal;text-align:start;line-height:125%;writing-mode:lr-tb;text-anchor:start;font-family:Times New Roman;-inkscape-font-specification:'Times New Roman, Italic'"
           id="flowPara3495-5-5-1-9-6-9"><flowSpan
             id="flowSpan5288-6-9-3-7"
             style="font-size:48px"><flowSpan
   id="flowSpan5978"
   style="font-style:normal;-inkscape-font-specification:'Times New Roman,'">Δ</flowSpan>P</flowSpan><flowSpan
             style="font-size:28px;baseline-shift:sub"
             id="flowSpan5296-7-6-6-7">αβ</flowSpan></flowPara></flowRoot><path
         inkscape:connector-curvature="0"
         id="path5982"
         d="m -224.46059,1036.9523 99.12815,0"
         style="fill:#000000;fill-opacity:1;stroke:#000000;stroke-width:0.7789188px;stroke-linecap:butt;stroke-linejoin:miter;stroke-opacity:1" /></g><flowRoot
       xml:space="preserve"
       id="flowRoot3489-2-1-85-4"
       style="font-size:40px;font-style:normal;font-weight:normal;line-height:125%;letter-spacing:0px;word-spacing:0px;fill:#000000;fill-opacity:1;stroke:none;font-family:Sans"
       transform="matrix(0,0.8,0.8,0,423.96981,643.48692)"><flowRegion
         id="flowRegion3491-7-2-7-5"><rect
           id="rect3493-3-8-1-3"
           width="152.07167"
           height="80.115768"
           x="41.329449"
           y="100.48729" /></flowRegion><flowPara
         id="flowPara3495-5-5-1-9"
         style="font-size:40px;font-style:italic;font-variant:normal;font-weight:normal;font-stretch:normal;text-align:start;line-height:125%;writing-mode:lr-tb;text-anchor:start;font-family:Times New Roman;-inkscape-font-specification:'Times New Roman, Italic'"><flowSpan
           style="font-size:48px"
           id="flowSpan5288-6-9">J</flowSpan><flowSpan
           id="flowSpan5296-7-6"
           style="font-size:28px;baseline-shift:sub">αβ</flowSpan></flowPara></flowRoot></g></svg>